<?xml version="1.0" encoding="UTF-8"?>
<svg width="15px" height="15px" viewBox="0 0 15 15" version="1.1" xmlns="http://www.w3.org/2000/svg" xmlns:xlink="http://www.w3.org/1999/xlink">
    <!-- Generator: Sketch 49.3 (51167) - http://www.bohemiancoding.com/sketch -->
    <title>Shape</title>
    <desc>Created with Sketch.</desc>
    <defs></defs>
    <g id="desktop" stroke="none" stroke-width="1" fill="none" fill-rule="evenodd">
        <g id="5-Reservation-pop-up1" transform="translate(-96.000000, -326.000000)" fill="#9C7833" fill-rule="nonzero">
            <path d="M104.664281,333.876204 C104.228779,333.876204 103.876605,334.228829 103.876605,334.664281 C103.876605,335.09893 104.229632,335.451957 104.664281,335.451957 C105.09893,335.451957 105.451957,335.09893 105.451957,334.664281 C105.452007,334.228829 105.099732,333.876204 104.664281,333.876204 Z M102.301254,333.08893 C102.736104,333.08893 103.08893,332.736104 103.08893,332.301254 C103.08893,331.866104 102.736104,331.513679 102.301254,331.513679 C101.866505,331.513679 101.513679,331.866104 101.513679,332.301254 C101.513679,332.736104 101.866505,333.08893 102.301254,333.08893 Z M104.664281,331.513679 C104.228779,331.513679 103.876605,331.866104 103.876605,332.301254 C103.876605,332.736104 104.228829,333.08893 104.664281,333.08893 C105.09893,333.08893 105.451957,332.736104 105.451957,332.301254 C105.452007,331.866104 105.099732,331.513679 104.664281,331.513679 Z M105.452007,327.575251 L101.513679,327.575251 L101.513679,329.150602 L105.452007,329.150602 L105.452007,327.575251 Z M107.027358,333.08893 C107.461806,333.08893 107.815033,332.736104 107.815033,332.301254 C107.815033,331.866104 107.462609,331.513679 107.027358,331.513679 C106.591856,331.513679 106.239682,331.866104 106.239682,332.301254 C106.239682,332.736104 106.592709,333.08893 107.027358,333.08893 Z M107.027358,335.451957 C107.461806,335.451957 107.815033,335.09893 107.815033,334.664281 C107.815033,334.228829 107.462609,333.876605 107.027358,333.876605 C106.591856,333.876605 106.239682,334.228829 106.239682,334.664281 C106.239682,335.09893 106.592709,335.451957 107.027358,335.451957 Z M102.301254,335.451957 C102.736104,335.451957 103.08893,335.09893 103.08893,334.664281 C103.08893,334.228829 102.736505,333.876204 102.301254,333.876204 C101.866104,333.876204 101.513679,334.228829 101.513679,334.664281 C101.513679,335.09893 101.866505,335.451957 102.301254,335.451957 Z M99.9383278,337.815033 C100.373077,337.815033 100.726003,337.461806 100.726003,337.027358 C100.726003,336.591906 100.373077,336.239682 99.9383278,336.239682 C99.5031773,336.239682 99.1506522,336.591906 99.1506522,337.027358 C99.1506522,337.461806 99.5035284,337.815033 99.9383278,337.815033 Z M109.390184,327.575251 L108.602759,327.575251 L108.602759,329.150602 L109.390184,329.150602 L109.390184,339.390134 L97.5753512,339.390134 L97.5753512,329.150652 L98.3629264,329.150652 L98.3629264,327.575251 L97.5753512,327.575251 C96.7053512,327.575251 96,328.280351 96,329.150652 L96,339.389833 C96,340.260334 96.7053512,340.965585 97.5753512,340.965585 L109.390134,340.965585 C110.260284,340.965585 110.965485,340.260284 110.965485,339.389833 L110.965485,329.150652 C110.965535,328.280351 110.260284,327.575251 109.390184,327.575251 Z M99.9383278,335.451957 C100.373077,335.451957 100.726003,335.09893 100.726003,334.664281 C100.726003,334.228829 100.373077,333.876204 99.9383278,333.876204 C99.5031773,333.876204 99.1506522,334.228829 99.1506522,334.664281 C99.1506522,335.09893 99.5035284,335.451957 99.9383278,335.451957 Z M99.9383278,333.08893 C100.373077,333.08893 100.726003,332.736104 100.726003,332.301254 C100.726003,331.866104 100.373077,331.513679 99.9383278,331.513679 C99.5031773,331.513679 99.1506522,331.866104 99.1506522,332.301254 C99.1506522,332.736104 99.5035284,333.08893 99.9383278,333.08893 Z M102.301254,337.815033 C102.736104,337.815033 103.08893,337.461806 103.08893,337.027358 C103.08893,336.591906 102.736104,336.239682 102.301254,336.239682 C101.866505,336.239682 101.513679,336.591906 101.513679,337.027358 C101.513679,337.461806 101.866505,337.815033 102.301254,337.815033 Z M99.9383278,329.150652 C100.373077,329.150652 100.726003,328.797826 100.726003,328.362977 L100.726003,326.787726 C100.726003,326.352425 100.373478,326 99.9383278,326 C99.5035284,326 99.1506522,326.352425 99.1506522,326.787676 L99.1506522,328.362926 C99.1506522,328.797826 99.5035284,329.150652 99.9383278,329.150652 Z M107.027358,329.150652 C107.461806,329.150652 107.815033,328.797826 107.815033,328.362977 L107.815033,326.787726 C107.815033,326.352425 107.461806,326 107.027358,326 C106.591856,326 106.239682,326.352425 106.239682,326.787676 L106.239682,328.362926 C106.239682,328.797826 106.592709,329.150652 107.027358,329.150652 Z" id="Shape"></path>
        </g>
    </g>
</svg>