<?xml version="1.0" encoding="UTF-8"?>
<svg width="17px" height="13px" viewBox="0 0 17 13" version="1.1" xmlns="http://www.w3.org/2000/svg" xmlns:xlink="http://www.w3.org/1999/xlink">
    <!-- Generator: Sketch 49.3 (51167) - http://www.bohemiancoding.com/sketch -->
    <title>Group 5</title>
    <desc>Created with Sketch.</desc>
    <defs></defs>
    <g id="desktop" stroke="none" stroke-width="1" fill="none" fill-rule="evenodd">
        <g id="11-contact-1" transform="translate(-56.000000, -458.000000)" fill="#9C7833" fill-rule="nonzero">
            <g id="Group-5" transform="translate(56.000000, 458.000000)">
                <path d="M14.9246757,0 L2.07883181,0 C0.932132707,0 0,0.936650353 0,2.08890701 L0,10.911093 C0,12.0633496 0.932132707,13 2.07883181,13 L14.9211583,13 C16.0678574,13 16.9999901,12.0633496 16.9999901,10.911093 L16.9999901,2.09244154 C17.0035076,0.940184883 16.0713749,0 14.9246757,0 Z M16.0537874,10.911093 C16.0537874,11.5367047 15.54727,12.045677 14.9246757,12.045677 L2.07883181,12.045677 C1.45623751,12.045677 0.949720116,11.5367047 0.949720116,10.911093 L0.949720116,2.09244154 C0.949720116,1.4668298 1.45623751,0.957857531 2.07883181,0.957857531 L14.9211583,0.957857531 C15.5437526,0.957857531 16.05027,1.4668298 16.05027,2.09244154 L16.05027,10.911093 L16.0537874,10.911093 Z" id="Shape"></path>
                <path d="M10.7046929,6.39239237 L14.83601,2.80116878 C15.0282455,2.63177144 15.0457215,2.34379597 14.8709619,2.15407095 C14.6962023,1.96773387 14.399111,1.95079414 14.2033802,2.12019148 L8.50621699,7.07675762 L7.39474589,6.11458074 C7.3912507,6.11119279 7.38775551,6.10780484 7.38775551,6.1044169 C7.36328916,6.08070127 7.33882282,6.06037359 7.31086128,6.04004591 L2.78808265,2.11680353 C2.59235189,1.94740619 2.29526055,1.96434593 2.12050095,2.15407095 C1.94574134,2.34379597 1.9632173,2.63177144 2.15894806,2.80116878 L6.33919786,6.4228839 L2.17642402,10.2004446 C1.98768364,10.3732298 1.97719807,10.6612053 2.15545287,10.8475424 C2.24982305,10.9424049 2.37564997,10.9932241 2.50147689,10.9932241 C2.61681823,10.9932241 2.73215957,10.9525687 2.82303457,10.871258 L7.04872187,7.03949021 L8.19514489,8.03215862 C8.28601989,8.11008139 8.39786604,8.14734881 8.50971219,8.14734881 C8.62155834,8.14734881 8.73689968,8.10669345 8.82427948,8.02877067 L10.0021592,7.00561074 L14.2033802,10.874646 C14.2942552,10.9593446 14.4130917,11 14.5284331,11 C14.65426,11 14.7765917,10.9525687 14.8709619,10.8577062 C15.0492167,10.6747571 15.0422263,10.3833937 14.8534859,10.2106084 L10.7046929,6.39239237 Z" id="Shape"></path>
            </g>
        </g>
    </g>
</svg>