<?xml version="1.0" encoding="UTF-8"?>
<svg width="22px" height="22px" viewBox="0 0 22 22" version="1.1" xmlns="http://www.w3.org/2000/svg" xmlns:xlink="http://www.w3.org/1999/xlink">
    <!-- Generator: Sketch 49.3 (51167) - http://www.bohemiancoding.com/sketch -->
    <title>google plus</title>
    <desc>Created with Sketch.</desc>
    <defs></defs>
    <g id="desktop" stroke="none" stroke-width="1" fill="none" fill-rule="evenodd">
        <g id="15-gallery-pop-up" transform="translate(-524.000000, -1608.000000)" fill="#979797" stroke="#979797" stroke-width="0.699300038">
            <g id="Group-5" transform="translate(388.000000, 1558.000000)">
                <g id="Group-2-Copy" transform="translate(47.000000, 51.000000)">
                    <g id="google-plus" transform="translate(89.000000, 0.000000)">
                        <path d="M10.7404542,17.1245674 C10.5276734,17.4946771 10.2392337,17.7838109 9.875173,17.9922758 C9.51118781,18.2010861 9.1220963,18.3545181 8.70774743,18.4530323 C8.29343632,18.5517001 7.85783202,18.6007845 7.40089677,18.6007845 C6.9052638,18.6007845 6.41340621,18.5415685 5.9256638,18.423597 C5.43780812,18.3056639 4.97120789,18.1263657 4.52593859,17.8863163 C4.08063154,17.6464205 3.72053501,17.3156475 3.44564898,16.8944194 C3.17072521,16.4732297 3.03326332,15.9951266 3.03326332,15.459688 C3.03326332,14.9874183 3.13776607,14.5663054 3.34688483,14.1961957 C3.55611685,13.826278 3.82330108,13.5309655 4.14851302,13.3107955 C4.47376272,13.0902802 4.85315149,12.909063 5.2868681,12.7677198 C5.72062246,12.6257242 6.13874671,12.527517 6.54139188,12.4724457 C6.94396153,12.4172593 7.35449725,12.3899348 7.77265926,12.3899348 C8.0282908,12.3899348 8.22196822,12.3978405 8.3535405,12.4133832 C8.40001553,12.4451212 8.51803417,12.527517 8.70782294,12.6613766 C8.89761171,12.7952363 9.02533309,12.8858832 9.09121362,12.9330872 C9.15694313,12.9801376 9.27703823,13.0706694 9.45131016,13.2045291 C9.62546882,13.3384271 9.74941481,13.4386683 9.82295938,13.5055981 C9.89635293,13.5724896 10.0028566,13.6729227 10.1423195,13.8066288 C10.2816313,13.9405269 10.3843219,14.0565795 10.4501646,14.1549786 C10.5158564,14.2533394 10.5972915,14.3733448 10.6940925,14.5148799 C10.7909689,14.6568372 10.8586239,14.7925773 10.8974726,14.9224457 C10.9360571,15.0523909 10.9729049,15.1940411 11.0076007,15.3474731 C11.0424098,15.5013657 11.0598143,15.6605543 11.0598143,15.8259984 C11.0600031,16.3217933 10.9534994,16.7547648 10.7404542,17.1245674 M7.52865591,8.25724836 C7.13371254,8.25724836 6.75817467,8.154858 6.40185352,7.95011568 C6.04557013,7.74537336 5.74357682,7.47968805 5.49576033,7.152983 C5.24805711,6.82635471 5.03119881,6.45835581 4.84529869,6.04894792 C4.65951183,5.63965515 4.52208769,5.23036239 4.43295078,4.82091612 C4.34385161,4.41166173 4.29933978,4.02194134 4.29933978,3.65190844 C4.29933978,2.89626151 4.49683035,2.24680428 4.89181147,1.70361349 C5.28667933,1.1604227 5.84430418,0.888788925 6.56453501,0.888788925 C7.07568483,0.888788925 7.53835866,1.05004989 7.95266977,1.37284046 C8.36698088,1.69563103 8.69226834,2.10492379 8.92849438,2.60087226 C9.16456941,3.09682072 9.34665639,3.61030757 9.47441553,4.14179331 C9.60217467,4.67308717 9.666092,5.17502248 9.666092,5.64736897 C9.666092,6.43463871 9.49767192,7.06663432 9.16079403,7.54293366 C8.82380287,8.0190795 8.27988268,8.25724836 7.52865591,8.25724836 M12.0066817,12.5492385 C11.8015649,12.2695839 11.5750416,12.0097703 11.3271873,11.7699896 C11.0794086,11.5299402 10.8315166,11.3113821 10.5838511,11.1146223 C10.3359591,10.9179008 10.1094358,10.7288163 9.90428124,10.547676 C9.69912664,10.3667659 9.53259427,10.1777198 9.40483513,9.98095998 C9.27707599,9.78423849 9.21315866,9.58352577 9.21315866,9.3788602 C9.21315866,9.09536787 9.30225783,8.82972094 9.48034289,8.58172752 C9.65842796,8.33377248 9.87528626,8.09376151 10.1307668,7.86138761 C10.3862851,7.62909046 10.6417656,7.37530208 10.8974726,7.09979221 C11.1528399,6.82412884 11.3695849,6.46015954 11.5478588,6.00742379 C11.7257928,5.5547648 11.814892,5.03720998 11.814892,4.45472094 C11.814892,3.76197423 11.663801,3.09674397 11.3618076,2.45918366 C11.0597766,1.82150822 10.6339128,1.32544463 10.0840275,0.971261513 L11.6520595,0.971261513 L13.2202803,0.0383887061 L8.14423297,0.0383887061 C7.42411541,0.0383887061 6.69995818,0.117215461 5.97221434,0.274945724 C4.89592664,0.518986294 3.98983345,1.07599287 3.25408578,1.94569682 C2.51845137,2.81559265 2.15057754,3.8015795 2.15057754,4.90369572 C2.15057754,6.06878893 2.56303871,7.03708388 3.38769677,7.80842708 C4.21239259,8.57969353 5.20173309,8.96553783 6.35560502,8.96553783 C6.58790466,8.96553783 6.85893978,8.94577357 7.16874815,8.90651371 C7.1532313,8.96941393 7.12631278,9.05407401 7.08746404,9.16030208 C7.04865305,9.26656853 7.01769486,9.35138213 6.99447622,9.41424397 C6.97129534,9.47714419 6.95185209,9.55382182 6.93648626,9.64443037 C6.92096941,9.73503893 6.91322987,9.82756634 6.91322987,9.92193586 C6.91322987,10.4415247 7.16089534,11.0280817 7.65664158,11.6813766 C7.0680963,11.6973799 6.48744158,11.7504556 5.91422437,11.8410258 C5.34119594,11.9316343 4.74109797,12.0733229 4.11377945,12.2662067 C3.48649869,12.4589753 2.92502294,12.7385148 2.42950323,13.1045565 C1.9338325,13.4707133 1.56218327,13.9054885 1.31432903,14.4093427 C1.02777706,14.9919468 0.884425568,15.5232023 0.884425568,16.0034929 C0.884425568,16.5308339 1.00070753,17.0090905 1.23293166,17.4382242 C1.46515579,17.8670894 1.76326045,18.2175115 2.12728339,18.4889918 C2.49123082,18.7607023 2.9114693,18.9887012 3.38769677,19.1739479 C3.8638865,19.3588492 4.33633859,19.4907133 4.80478877,19.5694249 C5.27331446,19.6481365 5.73602605,19.6874348 6.19296129,19.6874348 C8.26829223,19.6874348 9.89469176,19.1719907 11.0716691,18.1407571 C12.1559228,17.1802911 12.6979931,16.0702692 12.6979931,14.8106913 C12.6979931,14.3617549 12.6341135,13.9428679 12.5062411,13.5530707 C12.378482,13.1629666 12.2120628,12.8287012 12.0066817,12.5492385" id="Fill-1"></path>
                        <polygon id="Fill-4" points="18.6445052 3.06123739 18.6445052 0.0383810307 17.1574175 0.0383810307 17.1574175 3.06123739 14.1836197 3.06123739 14.1836197 4.57276151 17.1574175 4.57276151 17.1574175 7.59561787 18.6445052 7.59561787 18.6445052 4.57276151 21.6180388 4.57276151 21.6180388 3.06123739"></polygon>
                    </g>
                </g>
            </g>
        </g>
    </g>
</svg>