<?xml version="1.0" encoding="UTF-8"?>
<svg width="20px" height="20px" viewBox="0 0 20 20" version="1.1" xmlns="http://www.w3.org/2000/svg" xmlns:xlink="http://www.w3.org/1999/xlink">
    <!-- Generator: Sketch 49.3 (51167) - http://www.bohemiancoding.com/sketch -->
    <title>instagram</title>
    <desc>Created with Sketch.</desc>
    <defs></defs>
    <g id="desktop" stroke="none" stroke-width="1" fill="none" fill-rule="evenodd">
        <g id="15-gallery-pop-up" transform="translate(-569.000000, -1609.000000)" fill="#979797" fill-rule="nonzero">
            <g id="Group-5" transform="translate(388.000000, 1558.000000)">
                <g id="Group-2-Copy" transform="translate(47.000000, 51.000000)">
                    <g id="instagram" transform="translate(134.337778, 0.000000)">
                        <path d="M9.83111111,6.58512931 C8.10740243,6.58512931 6.705125,7.96234914 6.705125,9.65517241 C6.705125,11.3479957 8.10744083,12.7252155 9.83111111,12.7252155 C11.5547814,12.7252155 12.9570972,11.3479957 12.9570972,9.65517241 C12.9570972,7.96234914 11.5548198,6.58512931 9.83111111,6.58512931 Z" id="Shape"></path>
                        <path d="M16.0012086,0 L3.66109042,0 C1.6423716,0 0,1.61294181 0,3.59553341 L0,15.7148114 C0,17.697403 1.6423716,19.3103448 3.66109042,19.3103448 L16.0012086,19.3103448 C18.019889,19.3103448 19.6622222,17.697403 19.6622222,15.7148114 L19.6622222,3.59553341 C19.6622222,1.61294181 18.019889,0 16.0012086,0 Z M9.83111111,14.8541114 C6.91212918,14.8541114 4.5374359,12.5218226 4.5374359,9.65517241 C4.5374359,6.78852226 6.91212918,4.45623342 9.83111111,4.45623342 C12.750093,4.45623342 15.1247863,6.78847559 15.1247863,9.65517241 C15.1247863,12.5218692 12.750093,14.8541114 9.83111111,14.8541114 Z M16.4154348,4.23886826 C16.2748247,4.37701149 16.0802191,4.45623342 15.8810256,4.45623342 C15.6818826,4.45623342 15.4867729,4.37701149 15.3461124,4.23886826 C15.2054519,4.10072502 15.1247863,3.90910698 15.1247863,3.71352785 C15.1247863,3.51799823 15.2054519,3.3267763 15.3461124,3.18868258 C15.4867729,3.04999469 15.6818826,2.97082228 15.8810256,2.97082228 C16.0796645,2.97082228 16.2748247,3.05004421 16.4154348,3.18868258 C16.5566498,3.3267763 16.637265,3.51794872 16.637265,3.71352785 C16.637265,3.90910698 16.5566498,4.10072502 16.4154348,4.23886826 Z" id="Shape"></path>
                    </g>
                </g>
            </g>
        </g>
    </g>
</svg>