<?xml version="1.0" encoding="UTF-8"?>
<svg width="15px" height="17px" viewBox="0 0 15 17" version="1.1" xmlns="http://www.w3.org/2000/svg" xmlns:xlink="http://www.w3.org/1999/xlink">
    <!-- Generator: Sketch 49.3 (51167) - http://www.bohemiancoding.com/sketch -->
    <title>note</title>
    <desc>Created with Sketch.</desc>
    <defs></defs>
    <g id="desktop" stroke="none" stroke-width="1" fill="none" fill-rule="evenodd">
        <g id="5-Reservation-pop-up1" transform="translate(-96.000000, -401.000000)" fill="#9C7833" fill-rule="nonzero">
            <g id="note" transform="translate(96.000000, 401.000000)">
                <path d="M10.6454022,7.3046875 C10.6454022,6.93792578 10.3534239,6.640625 9.99322826,6.640625 L3.27583696,6.640625 C2.9156413,6.640625 2.62366304,6.93792578 2.62366304,7.3046875 C2.62366304,7.67144922 2.9156413,7.96875 3.27583696,7.96875 L9.99322826,7.96875 C10.3534239,7.96875 10.6454022,7.67144922 10.6454022,7.3046875 Z" id="Shape"></path>
                <path d="M3.27583696,9.296875 C2.9156413,9.296875 2.62366304,9.59417578 2.62366304,9.9609375 C2.62366304,10.3276992 2.9156413,10.625 3.27583696,10.625 L7.35554348,10.625 C7.71573913,10.625 8.00771739,10.3276992 8.00771739,9.9609375 C8.00771739,9.59417578 7.71573913,9.296875 7.35554348,9.296875 L3.27583696,9.296875 Z" id="Shape"></path>
                <path d="M4.80844565,15.671875 L2.62728261,15.671875 C1.90806522,15.671875 1.32293478,15.0760781 1.32293478,14.34375 L1.32293478,2.65625 C1.32293478,1.92392188 1.90806522,1.328125 2.62728261,1.328125 L10.6454022,1.328125 C11.3646196,1.328125 11.94975,1.92392188 11.94975,2.65625 L11.94975,6.74023438 C11.94975,7.10699609 12.2417283,7.40429688 12.6019239,7.40429688 C12.9621196,7.40429688 13.2540978,7.10699609 13.2540978,6.74023438 L13.2540978,2.65625 C13.2540978,1.19159375 12.083837,0 10.6454022,0 L2.62728261,0 C1.18884783,0 0.0185869568,1.19159375 0.0185869568,2.65625 L0.0185869568,14.34375 C0.0185869568,15.8084063 1.18884783,17 2.62728261,17 L4.80844565,17 C5.1686413,17 5.46061957,16.7026992 5.46061957,16.3359375 C5.46061957,15.9691758 5.1686413,15.671875 4.80844565,15.671875 Z" id="Shape"></path>
                <path d="M14.4092609,9.61469531 C13.646413,8.83794141 12.4051957,8.8379082 11.642837,9.61416406 L8.06230435,13.2518984 C7.98626087,13.3291621 7.93017391,13.4243223 7.89893478,13.5289785 L7.11916304,16.1428945 C7.05003261,16.3746523 7.11026087,16.6262988 7.27636957,16.7996523 C7.40080435,16.9295098 7.56984783,17 7.74322826,17 C7.80123913,17 7.85980435,16.9920977 7.91729348,16.9758613 L10.5496304,16.2334063 C10.6579565,16.2028594 10.7566957,16.1443223 10.8362609,16.0634395 L14.4092935,12.4321133 C15.1721413,11.6553594 15.1721413,10.3915156 14.4092609,9.61469531 Z M10.0361739,15.0001094 L8.71186957,15.3736445 L9.09942391,14.0744395 L11.5153696,11.6198984 L12.4378696,12.5592148 L10.0361739,15.0001094 Z M13.4874457,11.4925977 L13.361087,11.6209941 L12.43875,10.6818438 L12.5646848,10.5538789 C12.8189674,10.2949609 13.2327065,10.2949609 13.4869891,10.5538789 C13.7412717,10.8127969 13.7412717,11.2340781 13.4874457,11.4925977 Z" id="Shape"></path>
                <path d="M9.99322826,3.984375 L3.27583696,3.984375 C2.9156413,3.984375 2.62366304,4.28167578 2.62366304,4.6484375 C2.62366304,5.01519922 2.9156413,5.3125 3.27583696,5.3125 L9.99322826,5.3125 C10.3534239,5.3125 10.6454022,5.01519922 10.6454022,4.6484375 C10.6454022,4.28167578 10.3534239,3.984375 9.99322826,3.984375 Z" id="Shape"></path>
            </g>
        </g>
    </g>
</svg>