<?xml version="1.0" encoding="UTF-8"?>
<svg width="15px" height="15px" viewBox="0 0 15 15" version="1.1" xmlns="http://www.w3.org/2000/svg" xmlns:xlink="http://www.w3.org/1999/xlink">
    <!-- Generator: Sketch 49.3 (51167) - http://www.bohemiancoding.com/sketch -->
    <title>Shape</title>
    <desc>Created with Sketch.</desc>
    <defs></defs>
    <g id="desktop" stroke="none" stroke-width="1" fill="none" fill-rule="evenodd">
        <g id="5-Reservation-pop-up1" transform="translate(-95.000000, -253.000000)" fill-rule="nonzero" stroke="#9C7833">
            <path d="M108.674938,264.261386 L106.672603,262.253073 C106.273775,261.854705 105.613308,261.866808 105.200586,262.280866 L104.191801,263.292326 C104.128067,263.257099 104.062099,263.220303 103.992741,263.181265 C103.355703,262.827277 102.48381,262.342093 101.566322,261.421297 C100.646116,260.498558 100.161875,259.622814 99.807821,258.983535 C99.7704599,258.915808 99.7346634,258.85051 99.6993138,258.788498 L100.376357,258.110518 L100.709216,257.776291 C101.122572,257.361636 101.13397,256.699458 100.736073,256.299932 L98.7337379,254.291395 C98.335841,253.892429 97.675076,253.904533 97.2617207,254.319188 L96.697394,254.888386 L96.7128152,254.903739 C96.5235889,255.145883 96.3654657,255.425159 96.2477952,255.726326 C96.1393253,256.012998 96.0717923,256.286558 96.0409127,256.560679 C95.7765173,258.758874 96.7781505,260.76786 99.4964542,263.494012 C103.253976,267.26207 106.282044,266.977415 106.412678,266.963518 C106.697188,266.929412 106.969852,266.861237 107.24695,266.753314 C107.544646,266.636688 107.822936,266.478334 108.064236,266.288975 L108.076566,266.299958 L108.648268,265.73853 C109.060767,265.323949 109.072649,264.661547 108.674938,264.261386 Z" id="Shape"></path>
        </g>
    </g>
</svg>