<?xml version="1.0" encoding="UTF-8"?>
<svg width="24px" height="34px" viewBox="0 0 24 34" version="1.1" xmlns="http://www.w3.org/2000/svg" xmlns:xlink="http://www.w3.org/1999/xlink">
    <!-- Generator: Sketch 49.3 (51167) - http://www.bohemiancoding.com/sketch -->
    <title>placeholder-2</title>
    <desc>Created with Sketch.</desc>
    <defs></defs>
    <g id="desktop" stroke="none" stroke-width="1" fill="none" fill-rule="evenodd">
        <g id="11-contact-1" transform="translate(-522.000000, -378.000000)" fill="#967431" fill-rule="nonzero">
            <g id="Group-12" transform="translate(522.000000, 378.000000)">
                <g id="placeholder-2">
                    <g id="Group-9">
                        <path d="M12,0 C5.3832,0 0,5.36217188 0,11.953125 C0,14.1799922 0.619266667,16.3532031 1.79126667,18.2386094 L11.3169333,33.5291133 C11.4994,33.8220313 11.8208667,34 12.1666,34 C12.1692667,34 12.1718667,34 12.1745333,34 C12.5232667,33.9972773 12.8454,33.8137969 13.0245333,33.5157656 L22.3074,18.0771094 C23.4147333,16.2315469 24,14.113918 24,11.953125 C24,5.36217188 18.6168,0 12,0 Z M20.5910667,17.0543203 L12.1514667,31.0904766 L3.49113333,17.1889922 C2.5156,15.6196797 1.98666667,13.8091797 1.98666667,11.953125 C1.98666667,6.46066406 6.486,1.97890625 12,1.97890625 C17.514,1.97890625 22.0066667,6.46066406 22.0066667,11.953125 C22.0066667,13.7541289 21.5126,15.5183438 20.5910667,17.0543203 Z" id="Shape"></path>
                        <path d="M12,5.9765625 C8.6916,5.9765625 6,8.65764844 6,11.953125 C6,15.2275508 8.6478,17.9296875 12,17.9296875 C15.3935333,17.9296875 18,15.1915586 18,11.953125 C18,8.65764844 15.3084,5.9765625 12,5.9765625 Z M12,15.9507812 C9.78286667,15.9507812 7.98666667,14.1556211 7.98666667,11.953125 C7.98666667,9.75614062 9.7944,7.95546875 12,7.95546875 C14.2056,7.95546875 16.0066667,9.75614062 16.0066667,11.953125 C16.0066667,14.1234805 14.2522667,15.9507812 12,15.9507812 Z" id="Shape"></path>
                    </g>
                </g>
            </g>
        </g>
    </g>
</svg>