<?xml version="1.0" encoding="UTF-8"?>
<svg width="35px" height="26px" viewBox="0 0 35 26" version="1.1" xmlns="http://www.w3.org/2000/svg" xmlns:xlink="http://www.w3.org/1999/xlink">
    <!-- Generator: Sketch 49.3 (51167) - http://www.bohemiancoding.com/sketch -->
    <title>Page 1</title>
    <desc>Created with Sketch.</desc>
    <defs>
        <polygon id="path-1" points="0.310913782 0.297 22.6118507 0.297 22.6118507 19.1321885 0.310913782 19.1321885"></polygon>
    </defs>
    <g id="desktop" stroke="none" stroke-width="1" fill="none" fill-rule="evenodd">
        <g id="1-main-page-" transform="translate(-482.000000, -2943.000000)">
            <g id="Group-5" transform="translate(388.000000, 2840.000000)">
                <g id="Group-16" transform="translate(0.000000, 101.000000)">
                    <g id="Page-1" transform="translate(111.500000, 14.500000) rotate(-3.000000) translate(-111.500000, -14.500000) translate(94.000000, 1.000000)">
                        <g id="Group-3" transform="translate(5.384615, 0.603090)">
                            <mask id="mask-2" fill="white">
                                <use xlink:href="#path-1"></use>
                            </mask>
                            <g id="Clip-2"></g>
                            <path d="M1.51361538,18.83835 C1.50374359,18.82485 1.50105128,18.82125 1.49925641,18.81765 C1.40502564,18.66915 1.39874359,18.52155 1.49028205,18.36675 C1.52707692,18.30465 1.53874359,18.22725 1.55669231,18.15525 C1.60694872,17.95185 1.65810256,17.74935 1.70028205,17.54415 C1.72002564,17.44425 1.71912821,17.33985 1.729,17.23815 C1.73169231,17.20935 1.73707692,17.18145 1.74066667,17.15265 C1.76758974,16.98975 1.79451282,16.82775 1.8214359,16.66575 C1.85105128,16.48305 1.86810256,16.29855 1.91387179,16.12035 C1.96233333,15.93225 1.98207692,15.74325 2.00271795,15.55245 C2.02515385,15.34455 2.05297436,15.13485 2.09784615,14.93145 C2.13015385,14.78565 2.11758974,14.63805 2.14720513,14.49405 C2.16605128,14.39865 2.17412821,14.30055 2.18220513,14.20335 C2.18938462,14.10525 2.19117949,14.00715 2.19476923,13.90905 C2.19746154,13.85955 2.19746154,13.81005 2.20284615,13.76055 C2.22348718,13.59765 2.25041026,13.43565 2.26387179,13.27185 C2.27912821,13.10895 2.27912821,12.94425 2.28810256,12.78045 C2.29528205,12.66165 2.30515385,12.54285 2.31502564,12.42405 C2.31861538,12.37455 2.32130769,12.32505 2.32758974,12.27645 C2.33387179,12.22785 2.34194872,12.18015 2.34823077,12.13155 C2.35451282,12.09555 2.36528205,12.05865 2.36348718,12.02175 C2.35361538,11.81025 2.39758974,11.60415 2.41553846,11.39535 C2.42002564,11.34675 2.42092308,11.29635 2.42002564,11.24775 C2.41284615,10.98045 2.40566667,10.71225 2.39848718,10.44495 C2.39758974,10.43325 2.394,10.41885 2.39938462,10.40895 C2.46669231,10.26945 2.429,10.12095 2.43079487,9.97695 C2.43169231,9.95175 2.429,9.92565 2.43617949,9.90315 C2.48284615,9.76635 2.47207692,9.62685 2.46848718,9.48645 C2.46758974,9.44145 2.47835897,9.39645 2.48015385,9.35055 C2.48284615,9.31005 2.49271795,9.26415 2.47746154,9.22995 C2.43887179,9.14085 2.4514359,9.05265 2.45861538,8.96175 C2.46489744,8.87175 2.45682051,8.78085 2.46310256,8.68995 C2.48194872,8.42895 2.42271795,8.17515 2.37784615,7.92135 C2.35092308,7.76295 2.32669231,7.60455 2.29348718,7.44795 C2.27105128,7.34445 2.23605128,7.24365 2.2064359,7.14195 C2.20194872,7.12665 2.19207692,7.11045 2.19207692,7.09605 C2.19746154,6.94755 2.12566667,6.81795 2.09425641,6.67845 C2.07182051,6.57495 2.06015385,6.46695 2.04220513,6.36165 C2.01528205,6.19965 1.98746154,6.03675 1.95874359,5.87385 C1.9165641,5.63625 1.834,5.40945 1.76938462,5.17725 C1.73617949,5.05935 1.71733333,4.93785 1.69130769,4.81725 C1.64015385,4.58505 1.57733333,4.35465 1.53874359,4.11975 C1.51630769,3.98205 1.4965641,3.84525 1.45797436,3.71115 C1.42117949,3.58875 1.41489744,3.45105 1.35476923,3.34305 C1.25515385,3.16485 1.24528205,2.95875 1.15105128,2.78055 C1.11515385,2.71305 1.11246154,2.62845 1.08464103,2.55645 C1.05412821,2.47635 1.01105128,2.40165 0.973358974,2.32515 C0.968871795,2.31525 0.956307692,2.30715 0.952717949,2.29545 C0.877333333,2.06955 0.739128205,1.87245 0.662846154,1.64475 C0.600025641,1.46115 0.532717949,1.27035 0.394512821,1.12005 C0.368487179,1.09125 0.358615385,1.04715 0.339769231,1.01115 C0.302974359,0.94275 0.300282051,0.88425 0.337974359,0.80505 C0.378358974,0.72045 0.416948718,0.66285 0.512076923,0.63855 C0.552461538,0.62775 0.592846154,0.58095 0.614384615,0.54045 C0.669128205,0.44325 0.748102564,0.38835 0.855794872,0.36585 C1.03348718,0.32805 1.21387179,0.33255 1.39425641,0.33075 C1.59438462,0.32805 1.79451282,0.32085 1.99553846,0.31905 C2.16425641,0.31815 2.33207692,0.32355 2.50079487,0.32355 C2.54925641,0.32265 2.59771795,0.31365 2.64707692,0.31005 C2.70451282,0.30465 2.76194872,0.29475 2.81848718,0.29745 C2.94951282,0.30375 3.08053846,0.32805 3.2115641,0.32535 C3.33361538,0.32355 3.45476923,0.30735 3.57861538,0.31905 C3.8065641,0.34245 4.03810256,0.32895 4.26246154,0.38475 C4.30553846,0.39555 4.35310256,0.39015 4.39797436,0.39195 C4.54515385,0.39915 4.69233333,0.40275 4.83951282,0.41355 C4.93284615,0.42165 5.02438462,0.43965 5.11682051,0.45585 C5.42374359,0.50805 5.73425641,0.55125 6.03848718,0.61965 C6.25387179,0.66825 6.46835897,0.71415 6.68912821,0.74115 C6.77797436,0.75105 6.86323077,0.78885 6.95207692,0.80415 C7.06874359,0.82395 7.18810256,0.82935 7.30476923,0.84915 C7.48246154,0.87975 7.65925641,0.91665 7.83605128,0.95085 C7.86925641,0.95715 7.9015641,0.96525 7.93387179,0.96525 C8.08284615,0.96525 8.2264359,0.99495 8.37002564,1.03095 C8.40592308,1.03995 8.44271795,1.04265 8.47951282,1.04535 C8.61502564,1.05975 8.74964103,1.07235 8.87258974,1.13985 C8.89053846,1.14885 8.91207692,1.15425 8.93271795,1.15515 C9.21092308,1.16865 9.46758974,1.26945 9.72964103,1.34955 C9.90284615,1.40175 10.0760513,1.45215 10.2600256,1.46205 C10.4610513,1.47375 10.6342564,1.56735 10.8056667,1.66905 C10.9348974,1.74645 11.0757949,1.80495 11.214,1.86975 C11.3916923,1.95255 11.5729744,2.03085 11.7515641,2.11545 C11.8763077,2.17485 12.0001538,2.23785 12.1204103,2.30625 C12.2415641,2.37465 12.3564359,2.45205 12.4748974,2.52405 C12.5377179,2.56095 12.6059231,2.58885 12.6687436,2.62755 C12.8787436,2.75445 13.0914359,2.87775 13.2942564,3.01455 C13.4970769,3.15135 13.7097692,3.27555 13.8919487,3.44295 C13.9610513,3.50505 14.0463077,3.55005 14.1279744,3.59685 C14.1782308,3.62565 14.2311795,3.64635 14.2518205,3.70845 C14.2563077,3.72015 14.2778462,3.72915 14.2931026,3.73275 C14.3747692,3.75165 14.4313077,3.80115 14.4672051,3.87675 C14.4743846,3.89295 14.4941282,3.91365 14.5102821,3.91455 C14.6000256,3.92535 14.6529744,3.99105 14.7175897,4.04055 C14.8495128,4.14315 14.9868205,4.23945 15.1142564,4.34745 C15.2892564,4.49505 15.4570769,4.65165 15.6284872,4.80465 C15.6823333,4.85235 15.7406667,4.89645 15.7918205,4.94685 C15.8223333,4.97835 15.8438718,5.01795 15.8698974,5.05395 C15.8788718,5.06655 15.8851538,5.09085 15.8959231,5.09355 C16.0107949,5.11335 16.0538718,5.21955 16.1265641,5.28705 C16.254,5.40675 16.3787436,5.53005 16.4918205,5.66235 C16.618359,5.81085 16.7413077,5.96385 16.8624615,6.11775 C16.9943846,6.28515 17.1173333,6.46065 17.2519487,6.62535 C17.3479744,6.74235 17.4655385,6.84225 17.5705385,6.95205 C17.6324615,7.01685 17.6854103,7.09155 17.7500256,7.15455 C17.9681026,7.37055 18.1448974,7.62435 18.3719487,7.83315 C18.5092564,7.96005 18.6295128,8.10855 18.7470769,8.25615 C18.8888718,8.43345 19.0243846,8.61705 19.1527179,8.80605 C19.2209231,8.90595 19.2648974,9.02295 19.3250256,9.12915 C19.3573333,9.18585 19.4057949,9.23355 19.4381026,9.29025 C19.4766923,9.36045 19.5054103,9.43695 19.5386154,9.51075 C19.5520769,9.53955 19.5637436,9.57105 19.5781026,9.59985 C19.6247692,9.69075 19.6714359,9.78165 19.719,9.87345 C19.7629744,9.95625 19.8087436,10.03905 19.8509231,10.12275 C19.964,10.34595 20.0716923,10.57275 20.188359,10.79415 C20.3301538,11.06235 20.4800256,11.32695 20.6236154,11.59425 C20.6666923,11.67255 20.6981026,11.75715 20.7366923,11.83815 C20.7869487,11.93985 20.8407949,12.04065 20.8874615,12.14505 C20.9529744,12.29445 21.0131026,12.44565 21.0768205,12.59685 C21.1611795,12.79755 21.2545128,12.99555 21.3281026,13.19985 C21.4061795,13.41675 21.5300256,13.61295 21.5802821,13.84155 C21.6036154,13.94775 21.6700256,14.04405 21.7068205,14.14845 C21.7516923,14.27265 21.7866923,14.39955 21.8252821,14.52555 C21.8584872,14.63445 21.889,14.74515 21.9266923,14.85315 C21.9778462,15.00075 22.0164359,15.14925 22.0298974,15.30675 C22.0406667,15.42015 22.078359,15.53085 22.1061795,15.64245 C22.1501538,15.81795 22.1968205,15.99075 22.2398974,16.16715 C22.2856667,16.35795 22.3269487,16.54965 22.3736154,16.74045 C22.4472051,17.04015 22.5234872,17.33895 22.5979744,17.63865 C22.6168205,17.71245 22.6186154,17.78445 22.5898974,17.85735 C22.5755385,17.89515 22.5755385,17.93745 22.568359,17.97705 C22.554,18.06975 22.5566923,18.16965 22.4804103,18.20835 C22.4588718,18.32175 22.434641,18.41265 22.4256667,18.50445 C22.4184872,18.57555 22.3691282,18.61335 22.3224615,18.63315 C22.2327179,18.67185 22.1555385,18.72585 22.0792564,18.78345 C22.0631026,18.79515 22.0424615,18.79965 22.0272051,18.80505 C21.8459231,18.71685 21.7992564,18.54765 21.7516923,18.38115 C21.7229744,18.28125 21.6960513,18.18585 21.6206667,18.10755 C21.5668205,18.04995 21.5129744,17.97795 21.5515641,17.88525 C21.5542564,17.87805 21.5524615,17.86815 21.5497692,17.86095 C21.4591282,17.60175 21.4779744,17.32275 21.4070769,17.06175 C21.3550256,16.86825 21.2760513,16.68195 21.2078462,16.49205 C21.1306667,16.27515 21.0463077,16.06005 20.9781026,15.83955 C20.9045128,15.60015 20.8506667,15.35445 20.7797692,15.11415 C20.7304103,14.94855 20.6586154,14.78925 20.6128462,14.62365 C20.5652821,14.45085 20.474641,14.29965 20.4064359,14.13765 C20.3481026,14.00175 20.3032308,13.86135 20.2493846,13.72365 C20.2278462,13.66605 20.2009231,13.61025 20.1731026,13.55625 C20.1201538,13.45005 20.0564359,13.34835 20.013359,13.23945 C19.9334872,13.03785 19.8751538,12.82635 19.7898974,12.62745 C19.7172051,12.45825 19.6741282,12.27555 19.5592564,12.12525 C19.5466923,12.10905 19.5395128,12.08835 19.5332308,12.06945 C19.424641,11.76345 19.2559231,11.48625 19.1392564,11.18295 C19.068359,10.99845 18.9454103,10.83285 18.8457949,10.65915 C18.8224615,10.61595 18.7955385,10.57365 18.7748974,10.52955 C18.6959231,10.35495 18.5693846,10.21365 18.4527179,10.06515 C18.3602821,9.94995 18.2813077,9.82485 18.1942564,9.70515 C18.0614359,9.52155 17.913359,9.35145 17.7500256,9.19395 C17.6064359,9.05445 17.4807949,8.89785 17.3434872,8.75205 C17.1963077,8.59725 17.044641,8.44605 16.8947692,8.29305 C16.7251538,8.12025 16.5573333,7.94475 16.3841282,7.77465 C16.2674615,7.65945 16.1427179,7.55235 16.0251538,7.43805 C15.8986154,7.31475 15.7774615,7.18605 15.6527179,7.06095 C15.5701538,6.97635 15.4884872,6.88905 15.3987436,6.81075 C15.2955385,6.72165 15.2129744,6.61545 15.1277179,6.51015 C15.0460513,6.40845 14.9572051,6.31125 14.8692564,6.21405 C14.8315641,6.17265 14.8100256,6.13035 14.8073333,6.07185 C14.804641,5.99805 14.7777179,5.93415 14.7059231,5.88645 C14.6027179,5.81985 14.5075897,5.73975 14.4160513,5.65695 C14.2913077,5.54445 14.1719487,5.42385 14.0525897,5.30505 C13.9305385,5.18355 13.8192564,5.04945 13.6891282,4.93875 C13.524,4.79835 13.3436154,4.67685 13.1695128,4.54725 C13.0815641,4.48065 12.9936154,4.41495 12.9056667,4.34835 C12.7127179,4.20075 12.5242564,4.04775 12.3277179,3.90645 C12.2191282,3.82815 12.1006667,3.76335 11.984,3.69855 C11.8260513,3.61035 11.6663077,3.52665 11.5065641,3.44295 C11.4051538,3.38895 11.2992564,3.34305 11.2005385,3.28455 C11.0659231,3.20445 10.9142564,3.16305 10.7769487,3.08205 C10.6064359,2.98035 10.4054103,2.93175 10.2169487,2.86155 C10.1325897,2.83005 10.0473333,2.80125 9.96207692,2.77335 C9.77451282,2.71305 9.58605128,2.65635 9.39938462,2.59425 C9.34912821,2.57805 9.29887179,2.55735 9.25489744,2.52855 C9.16605128,2.47095 9.0664359,2.44935 8.96502564,2.42865 C8.81335897,2.39805 8.66528205,2.36115 8.51720513,2.30985 C8.32784615,2.24505 8.15553846,2.13795 7.95989744,2.09115 C7.92041026,2.08125 7.88451282,2.05785 7.84502564,2.04705 C7.60451282,1.97775 7.36489744,1.90755 7.12348718,1.84275 C6.91438462,1.78605 6.70348718,1.73295 6.49169231,1.68435 C6.38489744,1.66095 6.27451282,1.65195 6.16592308,1.63395 C6.06002564,1.61685 5.95592308,1.59165 5.85002564,1.57995 C5.7315641,1.56645 5.61220513,1.56465 5.49464103,1.55565 C5.33489744,1.54395 5.16976923,1.55025 5.01720513,1.51155 C4.89425641,1.48005 4.76412821,1.47555 4.6465641,1.42155 C4.61335897,1.40625 4.58733333,1.37385 4.54964103,1.34325 C4.4715641,1.38915 4.38271795,1.39365 4.28848718,1.36395 C4.24271795,1.34955 4.18976923,1.35945 4.14041026,1.35855 C3.899,1.35405 3.65758974,1.34685 3.41617949,1.34685 C3.25284615,1.34595 3.08951282,1.35495 2.92617949,1.35945 C2.91810256,1.35945 2.90912821,1.36395 2.90105128,1.36215 C2.75476923,1.30905 2.604,1.36485 2.45682051,1.34865 C2.32579487,1.33425 2.19746154,1.32075 2.06553846,1.33695 C2.0314359,1.34145 1.99553846,1.31535 1.95874359,1.30905 C1.90848718,1.30005 1.85015385,1.29915 1.82861538,1.35045 C1.81515385,1.38105 1.834,1.42605 1.84387179,1.46385 C1.85105128,1.49445 1.86989744,1.52415 1.87528205,1.55565 C1.88694872,1.62675 1.90938462,1.69065 1.96233333,1.74105 C1.97130769,1.75005 1.98117949,1.75815 1.9865641,1.76985 C2.04220513,1.89045 2.09605128,2.01285 2.15258974,2.13345 C2.16246154,2.15595 2.18130769,2.17395 2.19207692,2.19555 C2.22438462,2.26215 2.25669231,2.32875 2.28451282,2.39715 C2.324,2.49615 2.36079487,2.59605 2.39669231,2.69505 C2.42361538,2.76975 2.44425641,2.84445 2.47117949,2.91825 C2.49451282,2.97855 2.54117949,3.03525 2.54387179,3.09645 C2.55374359,3.27465 2.66951282,3.41595 2.69823077,3.58605 C2.73053846,3.77415 2.82387179,3.94605 2.84092308,4.14045 C2.84810256,4.21335 2.91182051,4.27815 2.87861538,4.36275 C2.87323077,4.37715 2.90015385,4.40415 2.91002564,4.42575 C2.94502564,4.50225 2.97105128,4.57965 2.97823077,4.66695 C2.98630769,4.75245 2.98630769,4.84065 3.02848718,4.92615 C3.10387179,5.07825 3.14515385,5.24475 3.14964103,5.41755 C3.1514359,5.44455 3.15682051,5.47695 3.17207692,5.49495 C3.20976923,5.53725 3.20976923,5.58405 3.20528205,5.63445 C3.199,5.70285 3.18105128,5.77305 3.23489744,5.83245 C3.24028205,5.83875 3.24387179,5.84955 3.24207692,5.85675 C3.18733333,6.02325 3.30310256,6.16725 3.304,6.33015 C3.304,6.45705 3.34707692,6.58665 3.38297436,6.71085 C3.43592308,6.89535 3.44130769,7.08525 3.4565641,7.27335 C3.46553846,7.40385 3.43951282,7.54245 3.47361538,7.66485 C3.51489744,7.82145 3.4664359,7.97265 3.4915641,8.12655 C3.51669231,8.27955 3.51669231,8.43525 3.53284615,8.58915 C3.54810256,8.74035 3.56964103,8.89065 3.58669231,9.04005 C3.58938462,9.07245 3.58848718,9.10485 3.58848718,9.13725 C3.58758974,9.18585 3.58579487,9.23535 3.58669231,9.28395 C3.58938462,9.44865 3.60553846,9.61335 3.59476923,9.77715 C3.57951282,10.03545 3.55528205,10.29195 3.58489744,10.55115 C3.60374359,10.72215 3.60194872,10.89495 3.61092308,11.06595 C3.619,11.20905 3.62797436,11.35215 3.63694872,11.49435 C3.63784615,11.51865 3.64412821,11.54655 3.63515385,11.56725 C3.59297436,11.66715 3.61271795,11.76975 3.61092308,11.87145 C3.61092308,11.91735 3.60553846,11.96145 3.60105128,12.00735 C3.58758974,12.14955 3.57233333,12.29355 3.55976923,12.43575 C3.55707692,12.46365 3.55887179,12.49425 3.56425641,12.52125 C3.58310256,12.62745 3.58758974,12.73005 3.53374359,12.82995 C3.52117949,12.85515 3.5265641,12.89385 3.53284615,12.92355 C3.57053846,13.09005 3.56964103,13.25475 3.54810256,13.42395 C3.52746154,13.58955 3.53105128,13.75785 3.52028205,13.92615 C3.51669231,13.99455 3.50233333,14.06295 3.49694872,14.13225 C3.48797436,14.24655 3.49246154,14.36355 3.47451282,14.47605 C3.4565641,14.58765 3.47541026,14.69745 3.4664359,14.80635 C3.45746154,14.91165 3.44848718,15.01515 3.45028205,15.12315 C3.45297436,15.31035 3.43592308,15.49755 3.42425641,15.68475 C3.42246154,15.71265 3.40989744,15.73965 3.40182051,15.76665 C3.39284615,15.79455 3.37220513,15.82245 3.37579487,15.84765 C3.39912821,16.02045 3.34617949,16.18695 3.34169231,16.35705 C3.33989744,16.43805 3.31476923,16.51815 3.30041026,16.59915 C3.27887179,16.71255 3.2564359,16.82595 3.23669231,16.93845 C3.23310256,16.95915 3.23489744,16.98075 3.23848718,17.00055 C3.26720513,17.15715 3.21425641,17.29935 3.16130769,17.44155 C3.14964103,17.47125 3.14784615,17.50545 3.14335897,17.53695 C3.14066667,17.55765 3.14605128,17.58015 3.13976923,17.59725 C3.05810256,17.80695 2.97105128,18.01485 2.89387179,18.22635 C2.84541026,18.35865 2.7664359,18.47115 2.69464103,18.58995 C2.67848718,18.61695 2.66323077,18.65295 2.66682051,18.68265 C2.67938462,18.82125 2.59861538,18.88425 2.48823077,18.93915 C2.39489744,18.98505 2.31233333,19.05345 2.22169231,19.10565 C2.18848718,19.12455 2.14451282,19.13445 2.10682051,19.13175 C1.98117949,19.12275 1.85194872,19.12005 1.764,19.00665 C1.75682051,18.99675 1.74335897,18.98865 1.74066667,18.97785 C1.71464103,18.85365 1.62579487,18.82665 1.51361538,18.83835" id="Fill-1" fill="#FFCC28" mask="url(#mask-2)"></path>
                        </g>
                        <path d="M21.7997051,14.27706 C21.9127821,14.15736 21.9935513,14.14836 22.1290641,14.23836 C22.1532949,14.25366 22.1784231,14.27706 22.2035513,14.27706 C22.3004744,14.28066 22.347141,14.34906 22.3982949,14.41386 C22.5086795,14.55696 22.5822692,14.71896 22.6468846,14.88636 C22.7563718,15.16986 22.8694487,15.45336 22.9125256,15.75576 C22.9322692,15.89256 22.9232949,16.03476 22.9197051,16.17336 C22.9170128,16.29396 22.8120128,16.35426 22.7420128,16.42896 C22.7106026,16.46226 22.6316282,16.46226 22.5768846,16.45776 C22.4727821,16.44966 22.3641923,16.44246 22.2879103,16.35066 C22.2035513,16.24896 22.1389359,16.13736 22.1129103,16.00686 C22.1111154,15.99426 22.1102179,15.98076 22.1030385,15.97086 C22.0303462,15.87096 22.025859,15.74766 21.9854744,15.63696 C21.9065,15.42276 21.885859,15.20136 21.8867564,14.97636 C21.8867564,14.95656 21.8894487,14.93316 21.8984231,14.91606 C21.9675256,14.80176 21.9298333,14.68746 21.8795769,14.58486 C21.8338077,14.48946 21.7916282,14.39766 21.7997051,14.27706" id="Fill-4" fill="#FFCC28"></path>
                        <path d="M17.1732436,15.22053 C17.2414487,15.24033 17.2450385,15.16023 17.314141,15.15753 C17.4146538,15.15213 17.5026026,15.14853 17.5905513,15.20973 C19.0749103,16.24203 16.6419615,14.13243 18.042859,15.60483 C18.0518333,15.61383 18.2214487,15.89193 18.2385,15.92163 C18.2833718,16.00623 18.3093974,16.09263 18.3255513,16.18713 C18.3479872,16.31223 18.3955513,16.43283 18.4117051,16.55703 C18.4251667,16.66053 18.4108077,16.76763 18.4054231,16.87293 C18.4036282,16.90983 18.3883718,16.94583 18.3838846,16.98183 C18.3767051,17.04303 18.3452949,17.07903 18.2851667,17.09253 C18.2690128,17.09613 18.2510641,17.09883 18.2385,17.10873 C18.119141,17.19693 18.0015769,17.12313 17.8840128,17.10333 C17.8588846,17.09883 17.8301667,17.06373 17.8167051,17.03583 C17.7511923,16.90443 17.6847821,16.77303 17.6282436,16.63803 C17.5519615,16.45713 17.4801667,16.27263 17.4173462,16.08633 C17.3850385,15.99003 17.3688846,15.88563 17.3590128,15.78303 C17.3500385,15.68943 17.3159359,15.61113 17.2531154,15.54183 C17.2046538,15.48783 17.1732436,15.43203 17.1929872,15.35283 C17.2019615,15.32043 17.1840128,15.28083 17.1732436,15.22053" id="Fill-6" fill="#FFCC28"></path>
                        <path d="M14.6574615,9.72522 C14.5748974,9.77382 14.5407949,9.79992 14.5605385,9.87552 C14.5928462,10.00422 14.4537436,10.20312 14.3254103,10.24182 C14.1791282,10.28682 14.0122051,10.21932 13.9359231,10.08522 C13.9098974,10.03932 13.8811795,9.99342 13.8623333,9.94482 C13.8031026,9.79272 13.7492564,9.63882 13.6909231,9.48672 C13.6316923,9.33282 13.5742564,9.17982 13.509641,9.02952 C13.4378462,8.86482 13.4064359,8.69292 13.3831026,8.51652 C13.3705385,8.43192 13.4225897,8.39772 13.468359,8.35272 C13.5132308,8.30952 13.5509231,8.25732 13.6263077,8.30142 C13.6451538,8.31312 13.6738718,8.30502 13.6981026,8.30772 C13.8551538,8.32482 13.9754103,8.39862 14.0481026,8.54442 C14.0606667,8.56962 14.0741282,8.59482 14.0893846,8.61912 C14.1423333,8.70552 14.2042564,8.78742 14.2464359,8.88012 C14.3128462,9.02502 14.3666923,9.17532 14.4223333,9.32472 C14.4573333,9.42012 14.4932308,9.51642 14.518359,9.61452 C14.5336154,9.67482 14.5398974,9.73332 14.6574615,9.72522" id="Fill-8" fill="#FFCC28"></path>
                        <path d="M18.3703333,11.71764 C18.3685385,11.70234 18.3721282,11.68074 18.3640513,11.66364 C18.297641,11.51784 18.2285385,11.37384 18.1621282,11.22894 C18.1531538,11.21094 18.1423846,11.18754 18.1468718,11.17134 C18.1728974,11.08494 18.1818718,10.98504 18.2734103,10.93914 C18.3102051,10.92024 18.3631538,10.91034 18.4017436,10.92114 C18.6027692,10.97514 18.7535385,11.08764 18.8486667,11.28384 C18.9877692,11.57094 19.0873846,11.86704 19.1232821,12.18384 C19.1358462,12.29454 19.1421282,12.40614 19.1385385,12.51774 C19.1349487,12.65544 18.9743077,12.79134 18.8316154,12.79134 C18.7661026,12.79134 18.7005897,12.79674 18.6350769,12.79764 C18.5722564,12.79854 18.5273846,12.76524 18.4905897,12.71664 C18.361359,12.54204 18.2671282,12.34674 18.1666154,12.15504 C18.1235385,12.07314 18.1477692,11.82564 18.2204615,11.75814 C18.2500769,11.73114 18.3075128,11.73294 18.3703333,11.71764" id="Fill-10" fill="#FFCC28"></path>
                        <path d="M9.72641026,16.56747 C9.80448718,16.58187 9.88166667,16.59267 9.95615385,16.61067 C9.99474359,16.62057 10.0342308,16.63767 10.0665385,16.66017 C10.1670513,16.72947 10.2567949,16.80687 10.304359,16.92747 C10.3474359,17.04087 10.4075641,17.14707 10.4605128,17.25597 C10.4623077,17.26047 10.4667949,17.26317 10.4667949,17.26677 C10.4551282,17.36847 10.5394872,17.43597 10.5610256,17.52507 C10.5879487,17.63937 10.6032051,17.75997 10.6507692,17.86347 C10.7055128,17.98227 10.7126923,18.10107 10.7055128,18.22347 C10.7010256,18.28827 10.6902564,18.35487 10.6696154,18.41607 C10.6328205,18.52317 10.4084615,18.61497 10.3025641,18.57357 C10.2720513,18.56097 10.2379487,18.55557 10.2110256,18.53937 C10.1742308,18.51687 10.1329487,18.49167 10.1105128,18.45657 C10.0710256,18.39537 10.0378205,18.32787 10.0135897,18.25857 C9.9525641,18.08937 9.88705128,17.92017 9.84666667,17.74557 C9.79910256,17.54217 9.77935897,17.33247 9.73987179,17.12727 C9.72371795,17.04357 9.68871795,16.96347 9.66089744,16.88157 C9.63307692,16.80057 9.66897436,16.63587 9.72641026,16.56747" id="Fill-12" fill="#FFCC28"></path>
                        <path d="M18.1205769,6.59673 C18.0864744,6.59313 18.0380128,6.58773 17.9895513,6.58143 C17.8935256,6.56793 17.8244231,6.51483 17.7705769,6.43653 C17.6960897,6.32943 17.6171154,6.22503 17.5453205,6.11703 C17.4977564,6.04593 17.4439103,5.98113 17.3909615,5.91543 C17.3407051,5.85153 17.3263462,5.76063 17.2967308,5.68143 C17.2410897,5.53383 17.3003205,5.39163 17.328141,5.25123 C17.3496795,5.13783 17.4304487,5.10903 17.5426282,5.10813 C17.8549359,5.10543 18.0505769,5.28993 18.1905769,5.52933 C18.2839103,5.68953 18.3260897,5.88033 18.3880128,6.05763 C18.4086538,6.11523 18.4194231,6.17733 18.441859,6.23403 C18.4669872,6.29613 18.441859,6.34833 18.4212179,6.40053 C18.3655769,6.54093 18.2704487,6.60573 18.1205769,6.59673" id="Fill-14" fill="#FFCC28"></path>
                        <path d="M25.2768205,16.07571 C25.2525897,16.12611 25.2310513,16.18911 25.1924615,16.23951 C25.0937436,16.36911 24.8191282,16.35921 24.7042564,16.28181 C24.6782308,16.26471 24.6602821,16.23321 24.6459231,16.20441 C24.5974615,16.10001 24.5472051,15.99741 24.5068205,15.88941 C24.4781026,15.81381 24.4664359,15.73101 24.444,15.65271 C24.3973333,15.49161 24.3452821,15.33141 24.2995128,15.17031 C24.2734872,15.08031 24.2492564,14.98851 24.2348974,14.89581 C24.2295128,14.85891 24.2465641,14.81481 24.2654103,14.78061 C24.2860513,14.74101 24.3192564,14.70861 24.3479744,14.67351 C24.353359,14.66721 24.3587436,14.66091 24.3650256,14.65551 C24.4027179,14.62761 24.668359,14.65191 24.7042564,14.68701 C24.7607949,14.74101 24.8173333,14.79501 24.8729744,14.84901 C24.884641,14.85981 24.9034872,14.87241 24.9043846,14.88501 C24.913359,14.99121 24.9869487,15.06051 25.0443846,15.13971 C25.0614359,15.16221 25.0713077,15.19101 25.0775897,15.21891 C25.1341282,15.46191 25.2131026,15.70041 25.228359,15.95241 C25.2301538,15.99111 25.2570769,16.02801 25.2768205,16.07571" id="Fill-16" fill="#FFCC28"></path>
                        <path d="M13.1273333,15.28956 C13.0555385,15.27516 12.9864359,15.23826 12.9711795,15.13926 C12.9586154,15.05556 12.9155385,14.97726 12.8832308,14.89626 C12.8275897,14.75676 12.809641,14.61096 12.8105385,14.46156 C12.8105385,14.39856 12.7952821,14.34636 12.7432308,14.29776 C12.6642564,14.22216 12.6534872,14.02416 12.7163077,13.93146 C12.7351538,13.90356 12.7755385,13.87026 12.8042564,13.87296 C12.9864359,13.88556 13.1811795,13.88286 13.3202821,14.02236 C13.4315641,14.13486 13.5177179,14.26716 13.5760513,14.42106 C13.6263077,14.55156 13.6541282,14.68746 13.6909231,14.82066 C13.7025897,14.86386 13.6918205,14.91516 13.6837436,14.96196 C13.6738718,15.01326 13.664,15.06726 13.6379744,15.11226 C13.2619487,15.75576 13.3068205,15.32556 13.1273333,15.28956" id="Fill-18" fill="#FFCC28"></path>
                        <path d="M11.6983462,6.87096 C11.5843718,7.06986 11.3914231,7.04376 11.2092436,7.03116 C11.1679615,7.02846 11.1239872,6.98346 11.0934744,6.94746 C11.0064231,6.84396 10.9166795,6.74046 10.8439872,6.62706 C10.7578333,6.49206 10.6986026,6.34266 10.6707821,6.18246 C10.6618077,6.12576 10.650141,6.06996 10.6366795,6.01416 C10.6061667,5.88456 10.6016795,5.75586 10.6456538,5.62806 C10.6528333,5.60466 10.6618077,5.56956 10.6770641,5.56416 C10.7775769,5.53356 10.8771923,5.49846 10.9803974,5.48766 C11.0360385,5.48226 11.0809103,5.52906 11.1168077,5.59116 C11.203859,5.74056 11.2424487,5.90886 11.3241154,6.05736 C11.3869359,6.17256 11.4407821,6.30306 11.5825769,6.35436 C11.6023205,6.36246 11.6193718,6.39846 11.623859,6.42366 C11.6427051,6.52896 11.6543718,6.63426 11.6705256,6.73956 C11.6777051,6.78366 11.6884744,6.82686 11.6983462,6.87096" id="Fill-20" fill="#FFCC28"></path>
                        <path d="M15.8003462,14.43879 C15.7635513,14.41449 15.7482949,14.39829 15.7303462,14.39199 C15.5625256,14.33349 15.4970128,14.20569 15.4638077,14.03919 C15.4359872,13.89519 15.3812436,13.75659 15.3390641,13.61439 C15.3318846,13.59189 15.3220128,13.56579 15.3247051,13.54329 C15.3354744,13.44789 15.2959872,13.37139 15.235859,13.30749 C15.1820128,13.24989 15.1694487,13.18959 15.1865,13.11489 C15.1972692,13.07169 15.1963718,13.02489 15.1990641,12.97989 C15.2044487,12.89079 15.2816282,12.82329 15.3570128,12.86199 C15.4718846,12.92139 15.6056026,12.92859 15.7097051,13.02129 C15.8030385,13.10409 15.8784231,13.19319 15.9152179,13.30749 C15.9798333,13.50639 16.0830385,13.69359 16.0893205,13.90959 C16.0902179,13.92939 16.0973974,13.95009 16.1036795,13.96989 C16.1575256,14.12739 16.1180385,14.24799 15.9798333,14.33799 C15.9232949,14.37399 15.8613718,14.40459 15.8003462,14.43879" id="Fill-22" fill="#FFCC28"></path>
                        <path d="M11.1623974,9.94662 C11.2907308,9.91782 11.392141,9.96192 11.4872692,10.03212 C11.5034231,10.04382 11.5222692,10.06182 11.5402179,10.06182 C11.6506026,10.06452 11.6865,10.16262 11.7430385,10.22832 C11.8767564,10.38582 11.8956026,10.59012 11.9449615,10.78092 C11.9575256,10.82862 11.9665,10.87812 11.9665,10.92672 C11.9665,10.98342 11.9566282,11.03922 11.9494487,11.09502 C11.9467564,11.11932 11.9359872,11.14272 11.9350897,11.16612 C11.9306026,11.27682 11.9288077,11.27142 11.8211154,11.31552 C11.6523974,11.38482 11.5025256,11.34972 11.3616282,11.24802 C11.3266282,11.22282 11.3185513,11.18952 11.3095769,11.14542 C11.2898333,11.05002 11.252141,10.95822 11.2153462,10.86732 C11.1920128,10.80792 11.1507308,10.75302 11.1300897,10.69272 C11.1148333,10.64772 11.1166282,10.59642 11.1175256,10.54872 C11.1193205,10.46592 11.1300897,10.38222 11.0529103,10.32192 C11.0430385,10.31292 11.0340641,10.28952 11.0385513,10.27782 C11.0780385,10.16442 11.0600897,10.02852 11.1623974,9.94662" id="Fill-24" fill="#FFCC28"></path>
                        <path d="M22.018859,9.52695 C22.0897564,9.55215 22.1480897,9.56925 22.2037308,9.59175 C22.3553974,9.65385 22.4756538,9.74565 22.5546282,9.89955 C22.6757821,10.13535 22.7529615,10.37745 22.7377051,10.64385 C22.7314231,10.75995 22.6874487,10.85715 22.5887308,10.92465 C22.4971923,10.98675 22.3993718,10.98405 22.2970641,10.96335 C22.1256538,10.93005 22.0745,10.80675 22.0565513,10.65285 C22.0520641,10.61775 22.0305256,10.58535 22.018859,10.55115 C22.0027051,10.50435 21.9883462,10.45845 21.9730897,10.41255 C21.9641154,10.38555 21.9632179,10.35225 21.9461667,10.33155 C21.8941154,10.27035 21.8896282,10.19475 21.8842436,10.12275 C21.8671923,9.91125 21.8842436,9.70605 22.018859,9.52695" id="Fill-26" fill="#FFCC28"></path>
                        <path d="M10.3324487,13.1661 C10.3503974,13.0941 10.3656538,13.0356 10.3782179,12.9771 C10.3961667,12.8961 10.4132179,12.8745 10.4975769,12.8952 C10.6447564,12.9285 10.7991154,12.9609 10.8430897,13.1427 C10.8448846,13.1508 10.8475769,13.1616 10.8529615,13.1652 C11.0225769,13.2687 11.0468077,13.4604 11.1195,13.6206 C11.1868077,13.7682 11.2271923,13.9302 11.2729615,14.0868 C11.2989872,14.175 11.2945,14.2632 11.2442436,14.3469 C11.1643718,14.4792 11.028859,14.5251 10.888859,14.4576 C10.8000128,14.4144 10.7345,14.3568 10.6815513,14.2623 C10.5945,14.103 10.5532179,13.9374 10.5227051,13.7637 C10.503859,13.6557 10.4589872,13.5531 10.4257821,13.4487 C10.4203974,13.4334 10.4042436,13.4172 10.4069359,13.4046 C10.4266795,13.3047 10.3683462,13.2318 10.3324487,13.1661" id="Fill-28" fill="#FFCC28"></path>
                        <path d="M13.1715769,3.27141 C13.3546538,3.25971 13.4776026,3.34071 13.5529872,3.50721 C13.5763205,3.55851 13.6211923,3.59991 13.6436282,3.65121 C13.7522179,3.90231 13.8024744,4.16781 13.8249103,4.43961 C13.8320897,4.53861 13.7719615,4.60881 13.6956795,4.64841 C13.6256795,4.68351 13.5404231,4.69521 13.4596538,4.70421 C13.3636282,4.71501 13.3017051,4.66731 13.2586282,4.57641 C13.2092692,4.47111 13.1338846,4.37751 13.0836282,4.27131 C13.0540128,4.20741 13.0513205,4.13001 13.037859,4.05801 C13.0127308,3.91671 12.9876026,3.77541 12.9660641,3.63411 C12.9606795,3.59451 12.9660641,3.55311 12.9696538,3.51351 C12.9732436,3.47751 12.9849103,3.44061 12.9858077,3.40461 C12.9885,3.29661 13.0235,3.26331 13.1347821,3.26871 C13.1473462,3.26871 13.1590128,3.27051 13.1715769,3.27141" id="Fill-30" fill="#FFCC28"></path>
                        <path d="M17.1434487,9.60345 C17.0653718,9.59895 16.9953718,9.59625 16.9262692,9.58995 C16.8024231,9.57915 16.7180641,9.51885 16.6597308,9.40365 C16.5843462,9.25605 16.544859,9.09675 16.4892179,8.94375 C16.4569103,8.85465 16.4362692,8.76375 16.4757564,8.66565 C16.4910128,8.62605 16.4766538,8.56665 16.4587051,8.52255 C16.4272949,8.44245 16.4658846,8.38215 16.5080641,8.32995 C16.5412692,8.28945 16.6005,8.27505 16.6507564,8.31285 C16.7763974,8.40915 16.9280641,8.47215 17.0187051,8.61345 C17.0510128,8.66475 17.0985769,8.70525 17.1371667,8.75205 C17.1497308,8.76735 17.1587051,8.78715 17.1640897,8.80605 C17.2116538,8.95005 17.2637051,9.09225 17.3005,9.23805 C17.3202436,9.31365 17.3220385,9.39465 17.244859,9.45765 C17.2017821,9.49185 17.1793462,9.55035 17.1434487,9.60345" id="Fill-32" fill="#FFCC28"></path>
                        <path d="M33.5978462,21.47391 C32.4105385,22.70781 31.1998974,22.88151 29.7693846,21.69981 C29.3125897,21.32271 28.798359,20.92581 27.9511795,21.06081 C27.8291282,21.08061 27.2143846,21.34791 26.5969487,21.68811 C24.9007949,22.62141 24.843359,22.66821 23.8938718,22.09851 C22.3314359,21.16251 20.8901538,20.09871 19.1554103,21.04821 C17.7365641,21.82491 16.0152821,22.47741 15.1277179,22.17411 C14.3577179,21.91131 13.4584872,21.30561 13.1210513,20.97441 C13.0456667,20.90061 12.9272051,20.87091 12.8275897,20.81961 C12.6723333,20.73951 12.5036154,20.70891 12.3393846,20.65851 C12.2281026,20.62431 12.1311795,20.63781 12.0288718,20.65131 C11.7345128,20.69361 11.3566923,20.82771 10.9752821,20.99151 C8.87976923,21.88971 8.45438462,22.62591 6.0214359,21.47211 C5.41117949,21.18231 4.88528205,20.90691 4.62412821,20.93841 C4.04887179,21.00861 4.09553846,21.02031 3.63694872,21.24531 C3.50323077,21.31101 3.36682051,21.37131 3.22682051,21.42171 C1.92823077,21.89421 1.20220513,21.66381 0.364897436,20.52891 C0.291307692,20.42901 0.288615385,20.30121 0.349641026,20.18511 C0.377461538,20.13021 0.403487179,20.07171 0.419641026,20.01141 C0.454641026,19.88541 0.508487179,19.84941 0.635923077,19.89261 C0.699641026,19.91511 0.759769231,19.95291 0.819897436,19.98711 C1.78194872,20.53431 1.69220513,20.57931 2.77271795,20.52801 C3.22861538,20.50641 3.26720513,20.41911 3.69797436,20.22741 C3.76887179,20.19501 3.84066667,20.16261 3.91246154,20.13201 C4.00489744,20.09241 4.0964359,20.05191 4.18976923,20.01681 C4.28220513,19.98171 4.37733333,19.96461 4.47964103,19.97721 C4.55951282,19.98711 4.63938462,19.97901 4.71925641,19.99071 C5.69028205,20.13291 7.61079487,21.21921 8.49835897,20.91141 C8.61951282,20.86911 8.76489744,20.88891 8.86361538,20.78991 C9.05835897,20.79531 11.2705385,19.45161 12.0970769,19.51461 C12.1222051,19.51641 12.1482308,19.50741 12.1742564,19.50471 C12.2622051,19.49661 12.3474615,19.49931 12.4336154,19.53171 C12.5125897,19.56141 12.5960513,19.58121 12.6777179,19.60281 C12.7961795,19.63521 12.9056667,19.68021 13.0151538,19.74411 C13.9242564,20.27061 15.0137436,21.32541 16.0807949,21.25971 C17.6602821,21.16251 18.0443846,19.20771 21.1297692,19.82421 C21.9975897,19.99791 22.6356667,20.34621 23.309641,20.68731 C25.0722051,21.58191 24.9034872,21.69981 26.5754103,20.72871 C27.5177179,20.18061 28.3415641,19.87281 29.449,20.30391 C29.9838718,20.51181 30.4918205,20.83311 30.8265641,21.11121 C30.9028462,21.17511 30.9719487,21.24711 31.0482308,21.31011 C31.0787436,21.33441 31.1182308,21.35331 31.1559231,21.36141 C32.0273333,21.56121 32.7228462,20.89341 33.229,20.28141 C33.2981026,20.19861 33.3627179,20.11311 33.4345128,20.03301 C33.5009231,19.95831 33.5673333,19.88721 33.5951538,19.78551 C33.6184872,19.69911 33.7154103,19.66041 33.7970769,19.69911 C33.8643846,19.73061 33.9298974,19.76931 33.9936154,19.80891 C34.0887436,19.86921 34.1497692,19.94841 34.1309231,20.06001 C34.2727179,20.81601 34.2987436,20.74581 33.5978462,21.47391" id="Fill-34" fill="#979797"></path>
                        <path d="M24.0700385,26.39673 C23.9758077,26.39763 23.8806795,26.39223 23.7864487,26.39493 C23.7263205,26.39673 23.6670897,26.40843 23.6069615,26.41563 C22.9617051,26.48943 21.0043974,25.70193 20.6301667,25.38513 C19.7111923,24.61023 19.3333718,24.42123 18.1738846,25.15743 C17.944141,25.30233 17.6847821,25.43013 17.4245256,25.56783 C16.1690128,26.23023 15.6431154,26.23203 14.5150385,25.41213 C13.282859,24.51753 12.4590128,23.93073 10.9917051,24.60933 C9.99016667,25.07283 8.83426923,25.72893 8.21503846,25.58223 C7.08965385,25.24203 6.83926923,24.46803 6.01273077,24.05403 C5.96965385,24.03243 5.90773077,24.04053 5.85657692,24.04503 C5.78119231,24.05223 5.70760256,24.07473 5.63311538,24.07563 C5.4635,24.07653 5.32170513,24.15393 5.17183333,24.20973 C4.96811538,24.28533 4.63696154,24.48783 4.27978205,24.68853 C3.35362821,25.20963 2.7209359,25.39413 1.74721795,24.77403 C1.2859359,24.48063 0.847089744,24.08643 0.534782051,23.83983 C0.440551282,23.76603 0.33824359,23.70303 0.246705128,23.62653 C0.191064103,23.58063 0.147987179,23.51943 0.100423077,23.46453 C0.0905512821,23.45283 0.0869615385,23.43303 0.0761923077,23.42583 C0.0340128205,23.39973 -0.00816666667,23.36463 0.00170512821,23.31783 C0.0133717949,23.25753 -0.00457692308,23.19003 0.0447820513,23.13603 C0.0690128205,23.10903 0.0735,23.06313 0.0860641026,23.02443 C0.171320513,22.74903 0.427987179,22.99293 0.5985,23.01543 C1.05260256,23.07573 1.50042308,23.45103 1.91503846,23.76783 C2.7909359,24.43833 3.33029487,24.38343 4.04824359,23.68233 C4.33452564,23.40153 4.66657692,23.10813 5.19516667,23.06313 C5.36478205,23.04783 5.53619231,23.02173 5.70580769,23.03703 C7.06901282,23.16123 7.35439744,24.61203 8.30926923,24.58053 C8.37029487,24.57873 8.43042308,24.56793 8.49144872,24.57153 C8.57311538,24.57513 8.64939744,24.58503 8.72747436,24.53643 C8.79029487,24.49683 8.87555128,24.48963 8.95273077,24.47523 C8.9760641,24.47163 9.30362821,24.32133 9.73619231,24.12063 C11.1711923,23.45463 12.0802949,22.49343 13.5870897,23.64543 C14.2897821,24.18273 14.9637564,24.93423 15.6861923,25.08453 C15.7867051,25.10613 15.8890128,25.13493 15.9913205,25.15653 C16.4238846,25.24563 17.3114487,24.53823 18.2088846,24.00543 C19.3665769,23.31873 19.6600385,23.29083 20.8518333,24.06843 C20.9738846,24.14763 22.3747821,25.18263 22.3765769,25.18263 C22.4609359,25.18983 22.5156795,25.25553 22.5856795,25.29063 C22.7400385,25.36893 23.2210641,25.51563 23.3888846,25.52643 C23.5674744,25.53723 23.7460641,25.55523 23.9237564,25.55523 C24.8956795,25.55703 26.0452949,24.08283 28.2224744,23.96763 C29.0831154,23.92173 30.3045256,25.19973 30.9883718,25.67043 C31.0924744,25.74153 31.2172179,25.74693 31.3293974,25.79283 C31.384141,25.81533 31.4496538,25.81353 31.5097821,25.81533 C31.5699103,25.81623 31.6345256,25.81983 31.6901667,25.80273 C32.6620897,25.50123 33.1610641,23.97753 33.7174744,24.20973 C33.8161923,24.25113 33.9176026,24.29073 34.0082436,24.34743 C34.0522179,24.37533 34.0926026,24.43923 34.0970897,24.48873 C34.1069615,24.58863 34.1096538,24.69123 34.0235,24.76953 C33.9813205,24.80823 33.9588846,24.86673 33.9274744,24.91623 C33.9202949,24.92883 33.9176026,24.94413 33.9077308,24.95493 C33.6214487,25.26633 33.2418333,25.73523 32.8119615,26.10963 C32.4090128,26.45883 31.9602949,26.72613 31.4999103,26.70093 C30.7693974,26.66313 30.1600385,26.06103 29.3864487,25.47513 C28.9233718,25.12413 28.4710641,24.82893 28.1515769,24.84333 C27.5799103,24.87033 26.5397821,25.41123 25.6145256,25.84683 C24.9845256,26.14383 24.4074744,26.39313 24.0700385,26.39673" id="Fill-36" fill="#979797"></path>
                        <path d="M21.4365128,21.99645 C21.3683077,22.05945 21.3189487,22.12335 21.2525385,22.16115 C21.1161282,22.24035 20.9635641,22.28175 20.8002308,22.28985 C20.7024103,22.29435 20.6063846,22.31325 20.5085641,22.32225 C20.3811282,22.33395 20.2527949,22.35285 20.125359,22.35285 C20.0006154,22.35285 19.8758718,22.33665 19.7520256,22.32135 C19.6730513,22.31145 19.5949744,22.29615 19.5195897,22.27365 C19.4756154,22.26105 19.4361282,22.23135 19.4127949,22.21875 C19.3813846,22.06845 19.4477949,21.97125 19.5025385,21.87045 C19.5106154,21.85605 19.5240769,21.84255 19.5384359,21.83265 C19.6102308,21.78765 19.6784359,21.73185 19.7565128,21.70305 C19.8426667,21.67245 19.9386923,21.66795 20.0293333,21.65175 C20.0697179,21.64545 20.1092051,21.63825 20.1477949,21.62925 C20.3012564,21.59505 20.4439487,21.52125 20.6099744,21.52755 C20.6548462,21.52935 20.7024103,21.50145 20.7454872,21.48075 C20.8693333,21.42225 21.0757436,21.49425 21.1385641,21.62025 C21.1726667,21.68685 21.2094615,21.75075 21.245359,21.81645 C21.3431795,21.83355 21.350359,21.94065 21.4365128,21.99645" id="Fill-38" fill="#979797"></path>
                        <path d="M12.7110128,21.93228 C12.6966538,21.95388 12.6796026,21.98268 12.659859,22.00968 C12.6499872,22.02408 12.6374231,22.04658 12.6239615,22.04748 C12.5575513,22.04928 12.5144744,22.08798 12.4696026,22.12938 C12.4552436,22.14198 12.4310128,22.14828 12.4094744,22.15098 C12.2721667,22.17168 12.1339615,22.18968 11.9957564,22.20858 C11.966141,22.21308 11.9338333,22.22478 11.9069103,22.21668 C11.7884487,22.18428 11.6726795,22.21578 11.5560128,22.20408 C11.4052436,22.18968 11.2517821,22.18068 11.1037051,22.14468 C11.0193462,22.12488 10.9421667,22.06098 10.8649872,22.00968 C10.8308846,21.98718 10.8362692,21.94038 10.8658846,21.92238 C10.9134487,21.89358 10.9134487,21.85938 10.9107564,21.80898 C10.9080641,21.76218 10.9313974,21.71538 10.9430641,21.66858 C10.9457564,21.66138 10.9484487,21.65058 10.9529359,21.64878 C11.0399872,21.62358 11.1028077,21.53988 11.189859,21.53268 C11.3747308,21.51558 11.5506282,21.47148 11.7256282,21.41658 C11.784859,21.39858 11.8521667,21.39948 11.9149872,21.38958 C12.0002436,21.37788 12.0863974,21.35268 12.1707564,21.35628 C12.3116538,21.36168 12.4202436,21.44358 12.5108846,21.54888 C12.5180641,21.55698 12.5216538,21.57048 12.5225513,21.58038 C12.5234487,21.64788 12.5306282,21.70278 12.6006282,21.75228 C12.6499872,21.78648 12.6715256,21.86298 12.7110128,21.93228" id="Fill-40" fill="#979797"></path>
                        <path d="M30.6553333,23.63346 C30.7118718,23.62536 30.7459744,23.61996 30.7791795,23.61546 C30.7944359,23.61456 30.8168718,23.61906 30.8231538,23.61096 C30.9012308,23.50926 31.0322564,23.54796 31.1345641,23.51106 C31.2350769,23.47506 31.3472564,23.46966 31.4549487,23.44896 C31.4818718,23.44356 31.5186667,23.43636 31.5330256,23.41656 C31.577,23.35626 31.6371282,23.34006 31.7071282,23.33196 C31.7421282,23.32746 31.7825128,23.32206 31.7762308,23.26356 C31.7735385,23.24736 31.8031538,23.21856 31.8246923,23.21226 C31.8893077,23.19336 31.9557179,23.17986 32.0221282,23.16906 C32.0364872,23.16726 32.0580256,23.18346 32.0705897,23.19606 C32.0840513,23.20866 32.0894359,23.22936 32.1002051,23.24466 C32.1612308,23.32296 32.2078974,23.40216 32.3281538,23.42016 C32.4412308,23.43636 32.4645641,23.52366 32.4062308,23.62626 C32.2707179,23.86116 32.0661026,24.01776 31.8166154,24.12036 C31.6200769,24.20136 31.4100769,24.21756 31.1973846,24.19506 C31.1462308,24.19056 31.0932821,24.15636 31.0484103,24.12486 C31.0062308,24.09516 30.967641,24.08976 30.9200769,24.09696 C30.8599487,24.10596 30.7998205,24.10236 30.7495641,24.05286 C30.7334103,24.03756 30.7109744,24.02406 30.6903333,24.01776 C30.5916154,23.98806 30.562,23.93316 30.5790513,23.82966 C30.5871282,23.77746 30.6059744,23.75136 30.6427692,23.72616 C30.6723846,23.70546 30.7181538,23.68926 30.6553333,23.63346 M31.1543077,23.85936 C31.1534103,23.86746 31.1534103,23.87466 31.1525128,23.88186 C31.1722564,23.88366 31.1911026,23.88456 31.2099487,23.88636 C31.2099487,23.87916 31.2099487,23.87376 31.2108462,23.86656 C31.192,23.86476 31.1731538,23.86206 31.1543077,23.85936" id="Fill-42" fill="#979797"></path>
                        <path d="M5.56482051,21.98106 C5.50738462,22.05126 5.46251282,22.10886 5.41494872,22.16376 C5.40328205,22.17546 5.38264103,22.18176 5.36558974,22.18626 C5.24353846,22.22136 5.12058974,22.25286 4.98866667,22.24476 C4.90251282,22.23936 4.8145641,22.25286 4.72751282,22.24926 C4.4995641,22.23846 4.27161538,22.22496 4.04366667,22.20606 C3.97546154,22.20156 3.90815385,22.17366 3.87405128,22.10346 C3.86148718,22.07736 3.84982051,22.04406 3.857,22.01976 C3.87494872,21.94686 3.86507692,21.87036 3.90187179,21.79746 C3.94494872,21.71196 3.97546154,21.63006 4.08494872,21.61836 C4.09930769,21.61656 4.11905128,21.61206 4.12533333,21.60216 C4.20879487,21.47886 4.34430769,21.50406 4.46815385,21.49146 C4.60635897,21.47616 4.74725641,21.46356 4.88007692,21.42846 C5.03533333,21.38796 5.15379487,21.43926 5.26328205,21.54456 C5.33776923,21.61566 5.39251282,21.69666 5.40417949,21.80196 C5.41405128,21.88836 5.47417949,21.94326 5.56482051,21.98106" id="Fill-44" fill="#979797"></path>
                        <path d="M8.2159359,22.68819 C8.42324359,22.64859 8.63683333,22.60809 8.85042308,22.56849 C8.91952564,22.55589 8.98773077,22.54599 9.05414103,22.51449 C9.10170513,22.49109 9.17978205,22.49739 9.23273077,22.51899 C9.36196154,22.57029 9.48939744,22.63149 9.52170513,22.79169 C9.54324359,22.90059 9.61414103,22.97439 9.72183333,23.01669 C9.66888462,23.15169 9.55042308,23.21019 9.45529487,23.28849 C9.42567949,23.31279 9.36824359,23.30289 9.32337179,23.31099 C9.21926923,23.33169 9.12055128,23.36049 9.00567949,23.34609 C8.80555128,23.32269 8.60183333,23.31909 8.40260256,23.32809 C8.26888462,23.33439 8.15670513,23.29299 8.04632051,23.23089 C7.95657692,23.17959 7.94132051,23.09769 7.99067949,23.01489 C8.00683333,22.98789 8.01311538,22.95279 8.01939744,22.92039 C8.03196154,22.84839 8.04362821,22.78179 8.13785897,22.77009 C8.16478205,22.76649 8.18452564,22.72239 8.2159359,22.68819" id="Fill-46" fill="#979797"></path>
                        <path d="M16.817859,22.99446 C16.7801667,23.05566 16.8124744,23.10696 16.8609359,23.15916 C16.9183718,23.22036 16.9695256,23.28876 17.034141,23.36706 C16.9820897,23.47056 16.9255513,23.57496 16.7855513,23.61906 C16.6518333,23.66226 16.509141,23.64786 16.3799103,23.68296 C16.2049103,23.72976 16.0245256,23.69196 15.8495256,23.72886 C15.7606795,23.74686 15.6574744,23.70906 15.5596538,23.69646 C15.5524744,23.69556 15.5461923,23.68836 15.5390128,23.68656 C15.3451667,23.61546 15.3424744,23.61546 15.3272179,23.42286 C15.3236282,23.38326 15.3451667,23.34366 15.354141,23.30316 C15.3649103,23.25636 15.4061923,23.25996 15.4411923,23.24916 C15.4663205,23.24106 15.4995256,23.21766 15.5031154,23.19606 C15.5165769,23.10606 15.5793974,23.06916 15.6538846,23.05386 C15.7633718,23.03226 15.8782436,23.03226 15.9868333,23.00616 C16.0837564,22.98366 16.1761923,22.94226 16.2686282,22.90626 C16.334141,22.88106 16.397859,22.85046 16.4624744,22.82346 C16.4714487,22.81896 16.4858077,22.81986 16.4956795,22.82436 C16.6033718,22.87386 16.7335,22.87656 16.817859,22.99446" id="Fill-48" fill="#979797"></path>
                        <path d="M23.4074615,23.88042 C23.3042564,23.86152 23.219,23.84712 23.1337436,23.82822 C23.0861795,23.81832 23.0691282,23.78592 23.0484872,23.73732 C22.9973333,23.61942 23.0278462,23.53482 23.1005385,23.45022 C23.1202821,23.42682 23.1256667,23.38992 23.1292564,23.38002 C23.2172051,23.34492 23.2863077,23.31522 23.3572051,23.28822 C23.3769487,23.28012 23.4011795,23.28102 23.4227179,23.27922 C23.4702821,23.27292 23.519641,23.27202 23.5654103,23.25942 C23.6416923,23.23872 23.7161795,23.21442 23.7870769,23.18472 C23.8669487,23.15052 23.9423333,23.10732 24.0266923,23.06502 C24.0697692,23.11272 24.1281026,23.14422 24.1927179,23.16132 C24.2375897,23.17302 24.2636154,23.19912 24.2869487,23.23872 C24.3255385,23.30352 24.3623333,23.37462 24.4179744,23.42502 C24.4781026,23.47992 24.5570769,23.51232 24.6351538,23.55822 C24.6288718,23.57532 24.6225897,23.59512 24.6127179,23.61222 C24.5866923,23.65722 24.5570769,23.70042 24.5319487,23.74542 C24.5077179,23.78772 24.4754103,23.81022 24.4260513,23.83002 C24.2474615,23.90292 24.0545128,23.89572 23.8687436,23.92092 C23.7673333,23.93622 23.659641,23.91192 23.5555385,23.90562 C23.5366923,23.90472 23.5169487,23.90562 23.499,23.90742 C23.4352821,23.91552 23.4352821,23.91552 23.4074615,23.88042" id="Fill-50" fill="#979797"></path>
                        <path d="M28.6588974,22.18455 C28.7037692,22.27275 28.7396667,22.34295 28.7764615,22.41405 C28.7818462,22.42395 28.7899231,22.43745 28.7988974,22.44015 C28.9003077,22.46175 28.9290256,22.57425 29.0394103,22.61385 C29.0008205,22.65255 28.9756923,22.68135 28.9469744,22.70655 C28.9308205,22.72095 28.9003077,22.72365 28.8904359,22.74075 C28.8491538,22.81545 28.7881282,22.81005 28.7145385,22.77585 C28.7010769,22.80915 28.6903077,22.83525 28.6840256,22.84965 C28.5413333,22.92165 28.3959487,22.92615 28.2469744,22.92795 C28.1356923,22.92975 28.028,22.93785 27.9283846,22.86495 C27.9032564,22.88925 27.8826154,22.90905 27.853,22.93785 C27.7542821,22.89915 27.6519744,22.85865 27.5505641,22.81815 C27.538,22.72545 27.5227436,22.63635 27.5182564,22.54635 C27.5155641,22.51305 27.5272308,22.46625 27.5505641,22.44825 C27.6753077,22.34925 27.8018462,22.25475 27.9732564,22.23045 C28.0791538,22.21605 28.1814615,22.17375 28.2837692,22.14135 C28.3564615,22.11705 28.4246667,22.09725 28.5027436,22.13145 C28.5556923,22.15575 28.6122308,22.16925 28.6588974,22.18455 M27.908641,22.62825 C27.9104359,22.61925 27.9122308,22.61115 27.9131282,22.60215 C27.8933846,22.59945 27.8727436,22.59675 27.8521026,22.59405 C27.8521026,22.60125 27.8512051,22.60935 27.8503077,22.61655 C27.8700513,22.62015 27.8897949,22.62375 27.908641,22.62825" id="Fill-52" fill="#979797"></path>
                        <path d="M3.05478205,22.81734 C2.96862821,23.00814 2.83580769,23.08464 2.63926923,23.06394 C2.4535,23.04414 2.26862821,23.01174 2.08824359,22.95324 C1.98683333,22.91994 1.89978205,22.86234 1.83516667,22.77684 C1.79298718,22.72194 1.79478205,22.66434 1.82978205,22.60854 C1.85670513,22.56534 1.87734615,22.51764 1.90426923,22.47354 C1.91683333,22.45284 1.93298718,22.43034 1.95452564,22.41774 C2.08465385,22.33944 2.22734615,22.29264 2.38170513,22.27824 C2.58542308,22.25934 2.7460641,22.33854 2.86542308,22.50954 C2.8735,22.52214 2.88337179,22.53744 2.88337179,22.55094 C2.88426923,22.67154 2.96414103,22.74444 3.05478205,22.81734" id="Fill-54" fill="#979797"></path>
                        <path d="M32.0422308,22.31244 C32.0296667,22.30794 32.018,22.30254 32.0054359,22.29714 C32.0054359,22.29714 32.0072308,22.28814 32.0081282,22.28814 C32.0206923,22.28904 32.0332564,22.28994 32.0458205,22.29084 C32.0449231,22.29804 32.0431282,22.30524 32.0422308,22.31244" id="Fill-56" fill="#FEFEFE"></path>
                        <path d="M27.6856282,24.99885 C27.6308846,24.98715 27.6308846,24.98715 27.6353718,24.93225 C27.6551154,24.96105 27.6685769,24.98085 27.6829359,25.00155 C27.6829359,25.00065 27.6856282,24.99885 27.6856282,24.99885" id="Fill-58" fill="#FEFEFE"></path>
                        <path d="M19.1508333,24.80148 C19.1607051,24.79878 19.1696795,24.79518 19.1786538,24.79518 C19.1822436,24.79608 19.1849359,24.80778 19.1876282,24.81408 C19.1786538,24.81768 19.1705769,24.82128 19.1616026,24.82308 C19.1598077,24.82398 19.1553205,24.81228 19.1508333,24.80148" id="Fill-60" fill="#FEFEFE"></path>
                        <path d="M18.8948846,24.82569 C18.8805256,24.82839 18.868859,24.83469 18.8607821,24.83199 C18.8536026,24.82839 18.8500128,24.81579 18.8446282,24.80679 C18.8536026,24.80409 18.8643718,24.79599 18.8715513,24.79779 C18.8796282,24.80139 18.8850128,24.81309 18.8948846,24.82569" id="Fill-62" fill="#FEFEFE"></path>
                        <path d="M31.1540385,23.86017 L31.2105769,23.86647 C31.2096795,23.87277 31.2096795,23.87907 31.2096795,23.88627 C31.1908333,23.88447 31.1719872,23.88357 31.153141,23.88267 C31.153141,23.87457 31.1540385,23.86737 31.1540385,23.86017" id="Fill-64" fill="#FEFEFE"></path>
                        <path d="M27.9087308,22.62798 C27.8898846,22.62438 27.870141,22.62078 27.8503974,22.61718 C27.8512949,22.60908 27.8521923,22.60188 27.8521923,22.59378 C27.8728333,22.59648 27.8934744,22.59918 27.9132179,22.60278 C27.9123205,22.61088 27.9105256,22.61898 27.9087308,22.62798" id="Fill-66" fill="#FEFEFE"></path>
                    </g>
                </g>
            </g>
        </g>
    </g>
</svg>