<?xml version="1.0" encoding="UTF-8"?>
<svg width="25px" height="20px" viewBox="0 0 25 20" version="1.1" xmlns="http://www.w3.org/2000/svg" xmlns:xlink="http://www.w3.org/1999/xlink">
    <!-- Generator: Sketch 49.3 (51167) - http://www.bohemiancoding.com/sketch -->
    <title>Fill 4 Copy</title>
    <desc>Created with Sketch.</desc>
    <defs></defs>
    <g id="desktop" stroke="none" stroke-width="1" fill="none" fill-rule="evenodd">
        <g id="15-gallery-pop-up" transform="translate(-473.000000, -1609.000000)" fill="#979797">
            <g id="Group-5" transform="translate(388.000000, 1558.000000)">
                <g id="Group-2-Copy" transform="translate(47.000000, 51.000000)">
                    <path d="M59.6058456,3.06345158 C60.658297,2.44846941 61.4574794,1.50546491 61.8317924,0.353328269 C60.8585787,0.916266146 59.7657793,1.32211618 58.6195066,1.5446175 C57.7119192,0.589676232 56.3935598,0 54.9274197,0 C52.1550732,0 49.8887784,2.18633803 49.8887784,4.86972299 C49.8887784,5.26268132 49.9558631,5.62937877 50.0355869,5.98318451 C45.8374483,5.78646661 42.1181386,3.84889078 39.6389229,0.890005261 C39.212595,1.62340015 38.9462009,2.44846941 38.9462009,3.33847467 C38.9462009,5.04018001 39.8523299,6.53275321 41.1847868,7.39697505 C40.3588677,7.38408335 39.5854496,7.16110456 38.906339,6.79440711 L38.906339,6.85982059 C38.906339,7.48817194 39.0264108,8.064479 39.2524569,8.6140477 C39.8659413,10.146251 41.2654828,11.2979101 42.9586413,11.625455 C42.5177298,11.7433902 42.0914019,11.8083262 41.6252122,11.8083262 C41.3053447,11.8083262 40.9854773,11.7691736 40.678249,11.7037602 C41.3320814,13.641336 43.1846875,15.0551265 45.3843837,15.1076483 C43.6508772,16.4168728 41.4920151,17.1894203 39.1328712,17.1894203 C38.7191825,17.1894203 38.3332026,17.1626819 37.92,17.1235293 C40.1590721,18.4986448 42.8113467,19.3103448 45.6507779,19.3103448 C53.5278781,19.3103448 58.3929744,13.9555117 59.6583466,8.39154638 C59.8858511,7.39697505 59.9918254,6.41481796 59.9918254,5.44603004 L59.9918254,4.81767869 C60.9650391,4.12391386 61.8317924,3.25969201 62.4977778,2.2909041 C61.6042879,2.67097072 60.6320464,2.93262463 59.6058456,3.06345158 Z" id="Fill-4-Copy"></path>
                </g>
            </g>
        </g>
    </g>
</svg>